<svg width="48" height="48.0019" overflow="visible" style="display: block;" viewBox="0 0 48 48.0019" fill="none" xmlns="http://www.w3.org/2000/svg">
<path id="Vector" d="M24.001 0C10.7665 0 0 10.7665 0 24.001C0 37.2355 10.7665 48.0019 24.001 48.0019C37.2355 48.0019 48 37.2355 48 24.001C48 10.7665 37.2335 0 24.001 0ZM24.1271 8.10833C32.6351 8.10833 39.7073 14.7421 40.2506 23.219H36.5214C36.2828 20.3164 35.0779 17.6777 33.0367 15.5841C30.7181 13.2054 27.6118 11.8705 24.2881 11.8278C17.7902 11.7541 12.2915 16.7522 11.7483 23.219H8.00162C8.54489 14.7401 15.6171 8.10833 24.1251 8.10833H24.1271ZM17.5263 23.219H13.8437C14.0998 20.689 15.2776 18.3509 17.1635 16.6261C19.0727 14.8798 21.5465 13.9194 24.1271 13.9194C24.1717 13.9194 24.2163 13.9194 24.2629 13.9194C27.0258 13.9543 29.6103 15.0641 31.5389 17.0432C33.19 18.739 34.1873 20.8733 34.4201 23.219H30.7278C30.2195 19.9982 27.3887 17.5729 24.1271 17.5729C20.8655 17.5729 18.0347 19.9963 17.5263 23.219ZM25.0448 25.3106H42.3733V24.2648C42.3733 14.2027 34.1873 6.01673 24.1251 6.01673C14.063 6.01673 5.87898 14.2027 5.87898 24.2648V25.3106H22.9552V29.1135L5.57824 35.8365C3.2965 32.2975 2.0916 28.2074 2.0916 24.001C2.0916 11.919 11.919 2.0916 24.001 2.0916C36.0829 2.0916 45.9103 11.9209 45.9103 24.001C45.9103 28.1822 44.7171 32.2529 42.4606 35.7783L25.0468 29.0418V25.3126L25.0448 25.3106ZM24.1271 19.6645C26.2497 19.6645 28.1221 21.1566 28.6052 23.219H19.6509C20.1321 21.1566 22.0064 19.6645 24.129 19.6645H24.1271ZM22.9552 31.3545V35.2855L9.56934 40.464C8.57593 39.5929 7.65819 38.6266 6.83552 37.5905L22.9552 31.3545ZM22.9552 37.5265V45.8812C18.836 45.6872 14.8721 44.3329 11.4824 41.9639L22.9552 37.5265ZM36.5855 41.9173C33.1803 44.3154 29.195 45.6853 25.0468 45.8812V37.4528L36.5855 41.9154V41.9173ZM38.4908 40.4136L25.0468 35.2137V31.2827L41.211 37.5362C40.3923 38.5742 39.4784 39.5424 38.4908 40.4136Z" fill="#163F35"/>
</svg>
