<svg width="152.267" height="70.0033" overflow="visible" style="display: block;" viewBox="0 0 152.267 70.0033" fill="none" xmlns="http://www.w3.org/2000/svg">
<g id="Vector">
<path d="M23.1927 61.6793H23.3434L28.2256 55.1737C28.4276 54.8967 28.5269 54.8718 28.8299 54.8718H30.7421C30.843 54.8718 30.8927 54.9481 30.8927 55.0228C30.8927 55.0725 30.8679 55.124 30.7917 55.2252L24.3748 63.6736V69.7014C24.3748 69.8523 24.2241 70.0033 24.0735 70.0033H22.4626C22.312 70.0033 22.1613 69.8523 22.1613 69.7014V63.6736L15.7444 55.2252C15.6682 55.124 15.6434 55.0742 15.6434 55.0228C15.6434 54.9464 15.693 54.8718 15.794 54.8718H17.7062C18.0075 54.8718 18.1085 54.8967 18.3105 55.1737L23.1927 61.6793Z" fill="white"/>
<path d="M41.8806 68.0837L35.5647 58.7791V69.698C35.5647 69.864 35.4289 70 35.2634 70H33.6525C33.487 70 33.3512 69.864 33.3512 69.698V55.1721C33.3512 55.0062 33.487 54.8701 33.6525 54.8701H34.6839C34.8594 54.8701 35.0366 54.9464 35.1624 55.1223L41.8558 64.6542H41.9055L48.5989 55.1223C48.7247 54.9464 48.9002 54.8701 49.0774 54.8701H50.1088C50.2743 54.8701 50.4101 55.0062 50.4101 55.1721V69.698C50.4101 69.864 50.2743 70 50.1088 70H48.4979C48.3324 70 48.1966 69.864 48.1966 69.698V58.7791L42.1306 67.7104C42.0114 67.8879 41.7499 67.8879 41.629 67.7104L35.563 58.7791L41.8806 68.0837Z" fill="white"/>
<path d="M55.7046 70C55.5539 70 55.4032 69.849 55.4032 69.698V55.1721C55.4032 55.0211 55.5539 54.8701 55.7046 54.8701H62.7754C66.1478 54.8701 67.9093 56.584 67.9093 58.9301C67.9093 60.2408 67.406 61.1998 66.5253 61.8801V61.9298C67.7835 62.6615 68.5384 63.8976 68.5384 65.5352C68.5384 68.4354 66.4491 69.9983 62.9013 69.9983H55.7046V70ZM57.6167 56.7864V61.0986H63.2274C65.2654 61.0986 65.6925 60.1662 65.6925 58.9301C65.6925 57.694 64.9624 56.7864 62.7241 56.7864H57.6167ZM62.8499 68.0837C65.2654 68.0837 66.3217 67.2259 66.3217 65.5369C66.3217 63.8478 65.2389 63.0149 62.8499 63.0149H57.6167V68.0837H62.8499Z" fill="white"/>
<path d="M74.3312 69.698C74.3312 69.849 74.1806 70 74.0299 70H72.4191C72.2684 70 72.1178 69.849 72.1178 69.698V55.1721C72.1178 55.0211 72.2684 54.8701 72.4191 54.8701H74.0299C74.1806 54.8701 74.3312 55.0211 74.3312 55.1721V69.698Z" fill="white"/>
<path d="M94.4562 62.4342C94.4562 67.1678 90.9249 69.9983 86.5675 69.9983C82.21 69.9983 78.6771 67.1678 78.6771 62.4342C78.6771 57.7006 82.2316 54.8685 86.5675 54.8685C90.9034 54.8685 94.4562 57.699 94.4562 62.4342ZM80.8194 62.4342C80.8194 65.9964 83.4252 68.1451 86.5658 68.1451C89.7064 68.1451 92.3123 65.9981 92.3123 62.4342C92.3123 58.8703 89.7792 56.7234 86.5658 56.7234C83.3524 56.7234 80.8194 58.8222 80.8194 62.4342Z" fill="white"/>
<path d="M95.7691 56.433V55.2218C95.7691 55.0709 95.971 54.8685 96.1217 54.8685H108.28C108.431 54.8685 108.633 55.0709 108.633 55.2218V56.433C108.633 56.584 108.431 56.7864 108.28 56.7864H103.308V69.698C103.308 69.849 103.158 70 103.007 70H101.396C101.246 70 101.095 69.849 101.095 69.698V56.7864H96.1234C95.9727 56.7864 95.7707 56.584 95.7707 56.433H95.7691Z" fill="white"/>
<path d="M114.176 69.698C114.176 69.849 114.025 70 113.874 70H112.263C112.113 70 111.962 69.849 111.962 69.698V55.1721C111.962 55.0211 112.113 54.8701 112.263 54.8701H113.874C114.025 54.8701 114.176 55.0211 114.176 55.1721V69.698Z" fill="white"/>
<path d="M130.059 55.0974C130.286 54.895 130.412 54.8701 130.663 54.8701H132.878C132.979 54.8701 133.029 54.9464 133.029 54.9962C133.029 55.046 133.004 55.0974 132.854 55.2235L125.481 61.6544L133.307 69.5985C133.383 69.6748 133.433 69.7246 133.433 69.8258C133.433 69.9005 133.383 70.0017 133.206 70.0017H131.067C130.84 70.0017 130.69 69.9768 130.514 69.7992L123.87 63.0664L121.379 65.2598V69.698C121.379 69.849 121.228 70 121.078 70H119.467C119.316 70 119.165 69.849 119.165 69.698V55.1721C119.165 55.0211 119.316 54.8701 119.467 54.8701H121.078C121.228 54.8701 121.379 55.0211 121.379 55.1721V62.7876H121.429L130.059 55.0958V55.0974Z" fill="white"/>
<path d="M138.37 66.8741L136.986 69.6731C136.809 70.0017 136.759 70.0017 136.458 70.0017H134.822C134.671 70.0017 134.595 69.9005 134.595 69.8258C134.595 69.7511 134.671 69.6234 134.721 69.5238L142.035 55.0377C142.087 54.9365 142.191 54.8718 142.305 54.8718H142.84C142.954 54.8718 143.058 54.9365 143.11 55.0377L150.424 69.5238C150.475 69.625 150.55 69.7511 150.55 69.8258C150.55 69.9005 150.474 70.0017 150.323 70.0017H148.687C148.386 70.0017 148.335 70.0017 148.159 69.6731L146.75 66.8741H138.37ZM142.648 58.1486H142.497L139.327 64.9578H145.793L142.648 58.1486Z" fill="white"/>
<path d="M12.228 58.0872C12.1154 58.2001 11.9366 58.205 11.8157 58.1005C10.7942 57.2095 9.41681 56.7317 7.88542 56.7317C4.74648 56.7317 2.14229 58.8289 2.14229 62.4392C2.14229 66.0495 4.74648 68.1467 7.88542 68.1467C9.40853 68.1467 10.7876 67.6573 11.8124 66.7563C11.9316 66.6518 12.1121 66.6551 12.2246 66.7696L13.2229 67.7701C13.3488 67.8962 13.3405 68.1052 13.2031 68.2181C11.8008 69.3745 9.935 70 7.88542 70C3.55283 70 0 67.1711 0 62.4392C0 57.7073 3.55283 54.8784 7.88542 54.8784C9.93831 54.8784 11.7992 55.4989 13.1965 56.6471C13.3339 56.7599 13.3438 56.969 13.218 57.095L12.228 58.0872Z" fill="white"/>
<path d="M7.87715 64.7919C9.18556 64.7919 10.2462 63.7289 10.2462 62.4176C10.2462 61.1064 9.18556 60.0434 7.87715 60.0434C6.56873 60.0434 5.50804 61.1064 5.50804 62.4176C5.50804 63.7289 6.56873 64.7919 7.87715 64.7919Z" fill="white"/>
<path d="M150.53 54.8701C151.492 54.8701 152.267 55.6466 152.267 56.6106C152.267 57.5746 151.492 58.351 150.53 58.351C149.568 58.351 148.793 57.5746 148.793 56.6106C148.793 55.6466 149.568 54.8701 150.53 54.8701ZM150.53 58.0159C151.311 58.0159 151.932 57.4003 151.932 56.6106C151.932 55.8208 151.311 55.2053 150.53 55.2053C149.749 55.2053 149.128 55.8275 149.128 56.6106C149.128 57.3937 149.742 58.0159 150.53 58.0159ZM150.896 56.8528V56.8711C150.896 56.8711 150.964 56.9208 151.027 57.0021L151.336 57.3754V57.4003H150.952L150.548 56.9092H150.182V57.4003H149.848V55.7843H150.648C151.038 55.7843 151.305 56.0083 151.305 56.3501C151.305 56.6305 151.119 56.7732 150.896 56.8545V56.8528ZM150.182 56.0631V56.6288H150.604C150.835 56.6288 150.97 56.5359 150.97 56.3484C150.97 56.1742 150.853 56.0631 150.591 56.0631H150.182Z" fill="white"/>
<path d="M75.6805 0C64.388 0 55.2013 9.20668 55.2013 20.5238C55.2013 31.841 64.388 41.0476 75.6805 41.0476C86.9731 41.0476 96.1581 31.841 96.1581 20.5238C96.1581 9.20668 86.9731 0 75.6805 0ZM75.7881 6.93363C83.0478 6.93363 89.0823 12.6063 89.5458 19.8552H86.3638C86.1602 17.3731 85.1321 15.1166 83.3905 13.3264C81.4121 11.2923 78.7615 10.1507 75.9255 10.1142C70.3811 10.0512 65.6892 14.3252 65.2257 19.8552H62.0288C62.4924 12.6046 68.5269 6.93363 75.7865 6.93363H75.7881ZM70.1559 19.8552H67.0137C67.2322 17.6916 68.2371 15.6923 69.8463 14.2174C71.4754 12.7241 73.5862 11.9028 75.7881 11.9028C75.8262 11.9028 75.8643 11.9028 75.904 11.9028C78.2615 11.9327 80.4667 12.8817 82.1124 14.5741C83.5212 16.0242 84.3722 17.8493 84.5709 19.8552H81.4203C80.9866 17.101 78.5711 15.027 75.7881 15.027C73.0051 15.027 70.5897 17.0993 70.1559 19.8552ZM76.5729 21.6438H91.3587V20.7495C91.3587 12.1451 84.3739 5.14506 75.7881 5.14506C67.2024 5.14506 60.2176 12.1451 60.2176 20.7495V21.6438H74.7882V24.8957L59.961 30.6447C58.0141 27.6184 56.986 24.1209 56.986 20.5238C56.986 10.1939 65.373 1.78858 75.6805 1.78858C85.988 1.78858 94.3751 10.1939 94.3751 20.5238C94.3751 24.0993 93.3569 27.5802 91.4315 30.5949L76.5729 24.8343V21.6438ZM75.7881 16.8156C77.5993 16.8156 79.1969 18.0915 79.6092 19.8552H71.9688C72.3793 18.0915 73.9786 16.8156 75.7898 16.8156H75.7881ZM74.7882 26.812V30.1735L63.3665 34.6018C62.5188 33.8568 61.7358 33.0306 61.0338 32.1446L74.7882 26.812ZM74.7882 32.0898V39.2342C71.2734 39.0683 67.8911 37.9102 64.9989 35.8843L74.7882 32.0898ZM86.4185 35.8445C83.513 37.8952 80.1124 39.0666 76.5729 39.2342V32.0268L86.4185 35.8429V35.8445ZM88.0442 34.5587L76.5729 30.1121V26.7507L90.3653 32.0981C89.6667 32.9858 88.8869 33.8137 88.0442 34.5587Z" fill="white"/>
</g>
</svg>
