<svg width="159.894" height="16.0013" overflow="visible" style="display: block;" viewBox="0 0 159.894 16.0013" fill="none" xmlns="http://www.w3.org/2000/svg">
<g id="Vector">
<path d="M24.3527 7.20046H24.5108L29.6369 0.320343C29.8485 0.0276839 29.9543 0 30.2717 0H32.2796C32.3854 0 32.4376 0.0804153 32.4376 0.159512C32.4376 0.212244 32.4115 0.266293 32.3318 0.373074L25.5937 9.30576V15.6797C25.5937 15.8392 25.4357 16 25.2763 16H23.5846C23.4265 16 23.2672 15.8405 23.2672 15.6797V9.30576L16.5304 0.374392C16.4507 0.267611 16.4246 0.21488 16.4246 0.160831C16.4246 0.0804153 16.4768 0.00131828 16.5826 0.00131828H18.5905C18.9079 0.00131828 19.0137 0.0276839 19.2254 0.321661L24.3514 7.20178L24.3527 7.20046Z" fill="#163F35"/>
<path d="M43.9765 13.9738L37.3442 4.13413V15.681C37.3442 15.8563 37.2018 16.0013 37.0268 16.0013H35.3351C35.1613 16.0013 35.0176 15.8576 35.0176 15.681V0.320343C35.0176 0.143693 35.16 0 35.3351 0H36.418C36.6022 0 36.7877 0.0804152 36.9197 0.266293L43.9478 10.3459H44L51.032 0.266293C51.164 0.0804152 51.3495 0 51.5337 0H52.6166C52.7904 0 52.934 0.143693 52.934 0.320343V15.6797C52.934 15.855 52.7917 16 52.6166 16H50.9249C50.7512 16 50.6075 15.8563 50.6075 15.6797V4.13413L44.2378 13.5783C44.1124 13.7668 43.8367 13.7668 43.7113 13.5783L37.3416 4.13413L43.9765 13.9738Z" fill="#163F35"/>
<path d="M58.4925 16C58.3344 16 58.1751 15.8405 58.1751 15.6797V0.320343C58.1751 0.160831 58.3331 0 58.4925 0H65.9177C69.4592 0 71.3077 1.81264 71.3077 4.29365C71.3077 5.68048 70.7799 6.69292 69.855 7.41402V7.46675C71.1757 8.24059 71.9687 9.547 71.9687 11.2792C71.9687 14.3456 69.7753 15.9987 66.0497 15.9987H58.4925V16ZM60.5003 2.02752V6.58746H66.3932C68.5343 6.58746 68.9824 5.60138 68.9824 4.29497C68.9824 2.98855 68.2156 2.02884 65.8642 2.02884H60.5003V2.02752ZM65.9961 13.9738C68.533 13.9738 69.6421 13.0668 69.6421 11.2805C69.6421 9.49427 68.5056 8.61366 65.9961 8.61366H60.5003V13.9738H65.9961Z" fill="#163F35"/>
<path d="M78.0536 15.6797C78.0536 15.8392 77.8955 16 77.7362 16H76.0444C75.8864 16 75.727 15.8405 75.727 15.6797V0.320343C75.727 0.160831 75.8851 0 76.0444 0H77.7362C77.8942 0 78.0536 0.159512 78.0536 0.320343V15.6797Z" fill="#163F35"/>
<path d="M99.1862 7.99934C99.1862 13.0049 95.4788 15.9987 90.9014 15.9987C86.324 15.9987 82.6166 13.0062 82.6166 7.99934C82.6166 2.9925 86.3501 0 90.9014 0C95.4527 0 99.1862 2.9925 99.1862 7.99934ZM84.8661 7.99934C84.8661 11.767 87.6016 14.0371 90.9014 14.0371C94.2012 14.0371 96.9354 11.7657 96.9354 7.99934C96.9354 4.23301 94.2757 1.96029 90.9014 1.96029C87.5271 1.96029 84.8661 4.17896 84.8661 7.99934Z" fill="#163F35"/>
<path d="M100.564 1.65313V0.374392C100.564 0.21488 100.776 0.00131828 100.934 0.00131828H113.702C113.86 0.00131828 114.072 0.21488 114.072 0.374392V1.65445C114.072 1.81396 113.86 2.02752 113.702 2.02752H108.481V15.6797C108.481 15.8392 108.323 16 108.163 16H106.472C106.314 16 106.154 15.8405 106.154 15.6797V2.02752H100.933C100.775 2.02752 100.563 1.81396 100.563 1.65445L100.564 1.65313Z" fill="#163F35"/>
<path d="M119.893 15.6797C119.893 15.8392 119.735 16 119.575 16H117.884C117.726 16 117.566 15.8405 117.566 15.6797V0.320343C117.566 0.160831 117.724 0 117.884 0H119.575C119.734 0 119.893 0.159512 119.893 0.320343V15.6797Z" fill="#163F35"/>
<path d="M136.572 0.239928C136.81 0.0263657 136.942 0 137.206 0H139.531C139.637 0 139.689 0.0804153 139.689 0.133147C139.689 0.185878 139.663 0.239927 139.505 0.373074L131.762 7.17278L139.98 15.5729C140.06 15.6533 140.112 15.706 140.112 15.8128C140.112 15.8919 140.06 15.9987 139.875 15.9987H137.629C137.391 15.9987 137.233 15.9723 137.048 15.7851L130.072 8.66507L127.455 10.9853V15.6783C127.455 15.8379 127.297 15.9987 127.138 15.9987H125.446C125.288 15.9987 125.129 15.8392 125.129 15.6783V0.320343C125.129 0.160831 125.287 0 125.446 0H127.138C127.296 0 127.455 0.159512 127.455 0.320343V8.37241H127.508L136.572 0.239928Z" fill="#163F35"/>
<path d="M154.099 12.6937H145.3L143.847 15.6533C143.662 16 143.609 16 143.292 16H141.574C141.416 16 141.336 15.8932 141.336 15.8141C141.336 15.735 141.416 15.6006 141.468 15.4938L149.15 0.17665C149.203 0.0685507 149.313 0.00131828 149.433 0.00131828H149.995C150.115 0.00131828 150.223 0.069869 150.278 0.17665L157.958 15.4938C158.012 15.6006 158.09 15.7337 158.09 15.8141C158.09 15.8945 158.01 16 157.852 16H156.135C155.817 16 155.765 16 155.579 15.6533L154.099 12.6937ZM149.792 3.46708H149.634L146.304 10.6662H153.095L149.792 3.46708Z" fill="#163F35"/>
<path d="M12.8387 3.40249C12.7211 3.52113 12.5317 3.52772 12.4063 3.41699C11.3338 2.47442 9.88766 1.97083 8.27825 1.97083C4.98106 1.97083 2.2469 4.18818 2.2469 8.00593C2.2469 11.8237 4.98106 14.0397 8.27825 14.0397C9.87851 14.0397 11.3259 13.5216 12.4024 12.5698C12.5278 12.4591 12.7172 12.463 12.8361 12.583L13.885 13.6416C14.017 13.7747 14.0078 13.9949 13.8641 14.1149C12.3919 15.3369 10.4324 16 8.27956 16C3.7309 16 0 13.0088 0 8.00593C0 3.00305 3.72959 0.0105463 8.27825 0.0105463C10.4337 0.0105463 12.388 0.667051 13.855 1.88119C14 2.00115 14.0091 2.22131 13.8772 2.35577L12.8387 3.40381V3.40249Z" fill="#163F35"/>
<path d="M8.26911 10.4922C9.64351 10.4922 10.7577 9.36785 10.7577 7.98088C10.7577 6.59392 9.64351 5.46956 8.26911 5.46956C6.89471 5.46956 5.78054 6.59392 5.78054 7.98088C5.78054 9.36785 6.89471 10.4922 8.26911 10.4922Z" fill="#163F35"/>
<path d="M158.069 0C159.079 0 159.894 0.82129 159.894 1.84032C159.894 2.85936 159.08 3.68065 158.071 3.68065C157.061 3.68065 156.247 2.85936 156.247 1.84032C156.247 0.82129 157.059 0 158.069 0ZM158.069 3.32735C158.89 3.32735 159.542 2.67611 159.542 1.84164C159.542 1.00717 158.89 0.355936 158.069 0.355936C157.249 0.355936 156.597 1.01376 156.597 1.84164C156.597 2.66952 157.242 3.32735 158.069 3.32735ZM158.453 2.09739V2.11716C158.453 2.11716 158.525 2.16989 158.591 2.25558L158.916 2.64975V2.67611H158.512L158.089 2.15671H157.705V2.67611H157.353V0.966301H158.193C158.604 0.966301 158.884 1.20359 158.884 1.5648C158.884 1.8601 158.689 2.0117 158.455 2.09739H158.453ZM157.705 1.26291V1.86142H158.148C158.389 1.86142 158.532 1.76254 158.532 1.56612C158.532 1.38156 158.408 1.26423 158.135 1.26423H157.705V1.26291Z" fill="#163F35"/>
</g>
</svg>
